<?xml version="1.0" standalone="no"?>
<!DOCTYPE svg PUBLIC "-//W3C//DTD SVG 20010904//EN"
 "http://www.w3.org/TR/2001/REC-SVG-20010904/DTD/svg10.dtd">
<svg version="1.0" xmlns="http://www.w3.org/2000/svg"
 width="260.000000pt" height="260.000000pt" viewBox="0 0 260.000000 260.000000"
 preserveAspectRatio="xMidYMid meet">
<metadata>
Created by potrace 1.14, written by Peter Selinger 2001-2017
</metadata>
<g transform="translate(0.000000,260.000000) scale(0.100000,-0.100000)"
fill="#000000" stroke="none">
<path d="M0 2587 c0 -7 5 -18 12 -25 9 -9 9 -12 0 -12 -7 0 -12 -7 -12 -16 0
-9 5 -12 12 -7 7 4 26 8 41 9 23 2 26 0 16 -12 -9 -11 -8 -14 7 -13 28 1 56
13 54 24 -3 17 20 17 26 1 5 -14 9 -14 22 -4 9 7 13 8 9 2 -3 -6 0 -11 7 -11
8 0 12 6 9 12 -7 19 32 23 218 23 110 0 169 -3 169 -10 0 -6 10 -8 24 -4 15 4
28 0 36 -9 7 -8 18 -15 24 -15 6 0 2 7 -8 15 -17 13 -17 15 -4 15 9 0 20 -5
23 -10 4 -6 12 -10 18 -9 29 3 40 -4 17 -11 -14 -5 71 -8 202 -7 125 0 231 -2
234 -6 4 -4 -254 -6 -574 -5 l-582 3 0 -302 c0 -232 3 -302 12 -306 10 -4 10
-6 0 -6 -10 -1 -12 -42 -12 -186 1 -165 3 -185 18 -186 14 0 13 -2 -3 -9 -15
-6 -7 -9 30 -10 192 -4 277 -8 282 -14 4 -3 1 -6 -5 -6 -24 0 -11 -19 16 -22
21 -2 27 -8 26 -25 -1 -15 5 -23 15 -24 30 -2 36 -4 60 -18 33 -18 348 -30
337 -12 -4 6 -12 9 -17 5 -15 -9 -130 7 -123 17 3 5 15 9 27 9 20 1 20 2 4 11
-9 6 -27 7 -38 4 -13 -5 -19 -3 -15 3 3 5 -1 12 -9 15 -9 4 -12 1 -8 -9 7 -18
-4 -18 -23 1 -9 8 -27 16 -42 17 -40 2 -46 3 -59 11 -6 4 -14 1 -16 -5 -4 -8
-6 -7 -6 4 -1 10 6 17 17 17 171 2 316 0 323 -5 20 -12 7 -20 -27 -16 -34 4
-35 3 -25 -17 7 -11 15 -22 19 -22 28 -5 64 -4 68 3 3 4 11 8 17 8 7 0 -4 -10
-23 -23 l-35 -22 60 -5 c33 -3 200 -4 370 -4 171 1 313 0 318 -3 4 -2 -11 -29
-33 -60 -22 -31 -36 -61 -32 -67 4 -7 31 -34 60 -61 63 -58 87 -63 298 -64
121 -1 132 -3 137 -20 4 -15 -2 -20 -27 -24 -17 -3 -47 1 -68 8 -29 10 -35 10
-31 0 2 -8 -3 -12 -14 -12 -11 1 -18 -4 -17 -15 1 -10 -2 -15 -8 -12 -5 3 -6
15 -3 27 5 18 4 19 -5 7 -9 -11 -13 -12 -17 -3 -3 9 -10 10 -24 2 -16 -8 -21
-6 -28 12 -5 14 -10 18 -15 11 -4 -6 10 -26 31 -46 37 -33 37 -34 10 -29 -15
3 -24 9 -21 14 3 5 -2 6 -10 3 -8 -3 -32 10 -56 32 -45 41 -87 51 -212 53 -32
1 -58 4 -58 7 0 4 16 29 36 57 28 39 33 52 22 58 -15 10 -264 14 -606 10 -190
-2 -247 0 -260 11 -15 12 -16 11 -3 -4 11 -15 9 -24 -18 -65 -17 -27 -43 -61
-57 -77 -15 -16 -35 -44 -46 -62 l-20 -34 -121 0 c-66 0 -118 3 -115 6 6 5 77
45 146 81 17 9 32 20 32 23 0 4 -23 7 -52 9 -28 1 -56 5 -62 9 -6 3 -23 5 -38
4 -15 -1 -28 2 -28 8 0 5 -8 10 -17 10 -15 0 -16 -2 -3 -10 11 -7 0 -10 -40
-12 -30 -1 -64 -1 -75 0 -60 4 -65 -3 -65 -84 0 -52 4 -80 14 -90 10 -9 16
-10 18 -2 2 6 10 9 18 6 9 -3 3 -10 -18 -19 -26 -11 -42 -33 -29 -40 1 -1 83
-5 182 -8 99 -3 179 -8 177 -11 -2 -3 2 -18 8 -35 14 -37 41 -188 34 -194 -6
-6 -355 -2 -365 4 -12 8 -39 -6 -39 -21 0 -8 7 -14 17 -14 9 0 13 -3 10 -7 -4
-3 54 -19 128 -34 75 -15 146 -31 158 -34 17 -5 19 -4 7 4 -23 16 3 14 61 -5
27 -9 47 -20 44 -24 -4 -7 -77 -26 -390 -99 -16 -4 -31 -15 -33 -23 -3 -14 7
-16 70 -13 40 2 134 7 208 10 164 7 210 14 186 27 -9 5 -16 17 -16 27 0 13 9
18 43 19 23 1 54 5 68 8 18 3 28 0 32 -10 5 -12 0 -16 -16 -16 -17 0 -19 -2
-7 -9 8 -6 18 -7 22 -5 4 3 8 0 8 -5 0 -6 -12 -11 -27 -11 -14 0 -23 -3 -19
-7 3 -4 184 -6 401 -4 356 2 396 0 401 -14 4 -9 13 -14 20 -11 19 7 18 3 -12
-55 -14 -28 -19 -47 -12 -43 7 5 38 26 68 47 105 73 108 74 360 70 l225 -4
-45 22 c-25 12 -79 37 -120 55 l-75 34 217 -2 c119 -2 214 0 212 3 -2 4 17 10
42 14 26 3 63 15 83 25 20 11 88 30 153 42 l116 23 4 45 c3 25 3 51 0 58 -3 9
-55 12 -211 13 -113 0 -226 4 -251 7 l-45 7 75 13 c41 8 121 22 177 33 56 10
117 19 135 21 18 1 39 6 47 12 12 9 13 8 7 -2 -7 -11 -4 -12 12 -3 16 9 24 8
36 -5 15 -14 16 -13 16 8 l0 23 -254 -3 c-174 -3 -256 0 -261 7 -3 6 -2 11 2
11 5 0 26 22 46 49 l38 49 82 -2 c45 -2 114 -4 153 -4 l70 -2 22 -46 c13 -26
25 -44 28 -41 3 3 1 15 -6 26 -9 18 -8 23 12 30 22 8 21 9 -11 18 -53 14 -50
31 6 31 26 0 54 0 61 1 13 1 14 51 13 960 0 332 -3 426 -13 433 -10 6 -10 8 0
8 9 0 12 27 12 100 l0 100 -1295 0 c-1056 0 -1295 -2 -1295 -13z m1995 -79
c77 -1 83 -2 45 -9 -56 -9 -147 -11 -179 -2 -23 6 -23 7 -5 14 10 4 26 5 34 3
8 -3 56 -6 105 -6z m148 -15 c-7 -2 -21 -2 -30 0 -10 3 -4 5 12 5 17 0 24 -2
18 -5z m-1365 -389 c-4 -14 -91 -10 -96 4 -2 8 11 11 47 9 28 -2 50 -8 49 -13z
m42 -5 c0 -5 -4 -9 -8 -9 -5 0 -9 7 -9 15 0 8 4 12 9 9 4 -3 8 -9 8 -15z m251
-14 c232 -4 222 -3 213 -16 -4 -7 0 -9 12 -5 11 3 26 1 34 -4 8 -5 11 -10 5
-11 -5 0 -19 -3 -30 -6 -30 -9 -287 -8 -395 1 -58 5 -101 13 -110 22 -12 12
-12 14 7 14 12 0 25 5 28 10 3 6 16 7 29 4 13 -3 106 -7 207 -9z m-585 -26 c6
-11 -17 -11 -71 -2 -40 7 -40 7 -10 13 35 7 73 1 81 -11z m49 -9 c3 -6 -1 -7
-9 -4 -18 7 -21 14 -7 14 6 0 13 -4 16 -10z m958 -50 c-2 -5 4 -10 13 -10 9 0
12 5 8 13 -6 9 -5 9 7 1 8 -7 30 -12 49 -12 19 1 49 -5 65 -12 17 -6 41 -13
55 -13 14 -1 28 -6 31 -10 4 -5 17 -4 29 3 18 10 21 9 18 -1 -7 -22 -49 -27
-194 -24 -76 2 -170 3 -207 4 -42 1 -66 5 -62 11 3 5 -4 10 -17 10 -13 0 -63
2 -113 4 -49 3 -136 5 -192 6 -186 4 -179 15 17 29 102 7 194 13 205 14 65 6
290 -4 288 -13z m-830 3 c-7 -2 -19 -2 -25 0 -7 3 -2 5 12 5 14 0 19 -2 13 -5z
m387 -63 c0 -5 -2 -10 -4 -10 -3 0 -8 5 -11 10 -3 6 -1 10 4 10 6 0 11 -4 11
-10z m37 4 c-3 -3 -12 -4 -19 -1 -8 3 -5 6 6 6 11 1 17 -2 13 -5z m61 -1 c-10
-2 -26 -2 -35 0 -10 3 -2 5 17 5 19 0 27 -2 18 -5z m682 3 c0 -2 -7 -7 -16
-10 -8 -3 -12 -2 -9 4 6 10 25 14 25 6z m94 -14 c2 -4 -11 -6 -30 -4 -19 2
-34 6 -34 8 0 8 59 4 64 -4z m86 -57 c0 -11 -29 -11 -33 -1 -4 10 1 12 14 9
10 -3 19 -7 19 -8z m-312 -72 c-10 -2 -26 -2 -35 0 -10 3 -2 5 17 5 19 0 27
-2 18 -5z m47 -253 c3 -5 0 -10 -7 -11 -30 -2 -50 -8 -74 -24 l-26 -17 23 31
c23 31 70 43 84 21z m-617 -32 l21 -23 -66 3 -66 4 29 19 c38 25 56 24 82 -3z
m-970 -5 c-16 -2 -40 -2 -55 0 -16 2 -3 4 27 4 30 0 43 -2 28 -4z m98 -1 c-5
-8 -66 -4 -66 4 0 2 16 4 36 4 19 0 33 -4 30 -8z m2300 -22 c13 0 24 -4 24
-10 0 -5 -14 -7 -32 -3 -40 7 -42 9 -32 24 6 10 9 10 12 1 2 -7 15 -12 28 -12z
m-1359 -6 c-3 -3 -12 -4 -19 -1 -8 3 -5 6 6 6 11 1 17 -2 13 -5z m-347 -19 c0
-7 -30 -13 -34 -7 -3 4 4 9 15 9 10 1 19 0 19 -2z m1417 -2 c-33 -4 -38 -7
-34 -24 6 -23 -9 -16 -23 12 -10 18 -7 19 42 17 45 -1 47 -2 15 -5z m-1659
-62 c11 -7 11 -9 -1 -14 -16 -6 -27 0 -27 15 0 10 11 10 28 -1z m1885 -38
c-13 -2 -35 -2 -50 0 -16 2 -5 4 22 4 28 0 40 -2 28 -4z m-1176 -231 l53 -7
-37 -52 -37 -53 -212 0 c-140 0 -215 4 -219 11 -4 6 -14 8 -23 4 -9 -3 -13 -3
-10 1 4 4 -16 25 -44 48 l-52 41 34 6 c47 8 481 9 547 1z m551 -83 c-3 -8 -7
-3 -11 10 -4 17 -3 21 5 13 5 -5 8 -16 6 -23z m-93 11 c3 -5 -1 -10 -9 -10 -9
0 -16 5 -16 10 0 6 4 10 9 10 6 0 13 -4 16 -10z m-1745 -50 c0 -5 -4 -10 -10
-10 -5 0 -10 5 -10 10 0 6 5 10 10 10 6 0 10 -4 10 -10z m1720 -20 c11 -7 11
-10 2 -10 -7 0 -10 -5 -7 -11 4 -6 13 -8 21 -5 7 3 16 0 20 -6 4 -7 3 -8 -4
-4 -7 4 -12 3 -12 -3 0 -13 32 -30 47 -24 6 2 14 -1 18 -6 3 -7 0 -8 -9 -5
-26 10 -18 -4 12 -20 l27 -15 -31 -1 c-17 0 -51 7 -75 16 -24 9 -52 16 -61 16
-15 -1 -14 4 5 43 24 48 25 49 47 35z m-663 -256 c-15 -15 -27 -30 -27 -35 0
-26 -52 -32 -260 -30 -118 1 -228 4 -245 7 -22 4 -39 18 -62 55 l-33 49 313 2
c346 3 362 1 314 -48z m987 -4 c38 -19 69 -39 69 -45 0 -5 7 -16 16 -23 14
-12 13 -13 -9 -7 -64 17 -110 21 -111 11 0 -6 -3 -6 -6 2 -2 6 -14 12 -24 12
-11 0 -18 -4 -14 -9 3 -5 -14 -9 -39 -8 -24 1 -42 5 -39 9 2 5 -8 3 -24 -3
-15 -5 -37 -8 -48 -5 -12 3 -88 6 -168 7 l-147 1 12 21 c6 12 20 34 32 49 l21
28 205 -3 205 -2 69 -35z m-614 -71 c0 -6 -6 -7 -12 -3 -10 6 -10 5 -1 -8 11
-13 3 -19 -55 -41 -37 -15 -76 -27 -85 -27 -11 0 -15 -4 -11 -11 5 -8 -1 -10
-19 -7 -17 3 -24 1 -20 -5 4 -6 0 -8 -11 -4 -10 4 -76 7 -147 7 -147 0 -146
-1 -74 78 l33 37 201 -3 c128 -2 201 -7 201 -13z m154 -55 c39 -20 75 -40 81
-45 10 -10 -143 -10 -188 0 l-27 6 25 38 c14 20 28 37 32 37 3 0 38 -16 77
-36z m783 20 c-16 -17 -82 -22 -106 -9 -24 13 -22 14 43 15 38 0 67 -3 63 -6z
m-1747 -165 c0 -5 -7 -9 -15 -9 -15 0 -20 12 -9 23 8 8 24 -1 24 -14z"/>
<path d="M1980 743 c0 -16 33 -33 62 -32 18 1 15 3 -12 12 -19 6 -38 16 -42
21 -5 8 -8 7 -8 -1z"/>
<path d="M1118 633 c7 -3 16 -2 19 1 4 3 -2 6 -13 5 -11 0 -14 -3 -6 -6z"/>
<path d="M35 1481 c-3 -6 -12 -8 -20 -4 -10 3 -15 -2 -15 -17 0 -11 4 -19 9
-15 5 3 13 0 16 -6 4 -5 13 -8 21 -5 8 3 14 0 14 -6 0 -7 5 -6 15 2 13 11 14
10 9 -4 -5 -13 1 -16 37 -14 54 1 92 14 84 28 -3 5 -1 10 6 10 17 0 -5 23 -23
25 -86 12 -148 14 -153 6z"/>
<path d="M130 1402 c0 -9 -13 -13 -42 -12 -90 4 -88 5 -88 -45 0 -40 2 -45 23
-45 12 0 29 5 37 11 13 9 12 10 -2 5 -12 -3 -18 0 -18 10 0 8 5 12 10 9 6 -3
10 1 10 10 0 10 9 15 28 14 15 0 40 2 55 5 21 5 28 3 24 -6 -2 -7 -10 -12 -16
-10 -6 1 -11 -5 -11 -13 0 -8 6 -15 13 -16 6 0 3 -4 -8 -9 -16 -7 -17 -9 -3
-9 22 -1 49 26 42 43 -3 7 1 13 8 14 7 0 36 7 63 14 l50 13 -80 3 c-48 2 -82
8 -87 15 -6 9 -8 9 -8 -1z"/>
<path d="M338 1378 c6 -6 18 -8 28 -6 14 3 12 5 -9 10 -19 3 -25 2 -19 -4z"/>
<path d="M302 1373 c-10 -4 -9 -8 5 -19 16 -12 15 -13 -12 -6 -16 4 -46 5 -65
1 -19 -3 -31 -7 -26 -8 5 0 3 -7 -3 -14 -8 -10 -7 -14 4 -14 8 0 12 4 10 8 -3
4 2 10 11 13 23 9 36 7 29 -4 -3 -5 -1 -10 4 -10 6 0 11 5 11 10 0 6 4 10 10
10 5 0 6 -8 3 -17 -6 -15 -4 -16 9 -5 13 10 17 10 22 0 4 -9 8 -10 11 -2 3 7
14 10 25 7 10 -3 27 0 37 6 15 9 12 10 -18 11 -35 0 -66 20 -52 33 7 8 4 8
-15 0z"/>
<path d="M510 1355 c0 -2 9 -9 20 -15 16 -9 18 -8 14 5 -5 13 -34 22 -34 10z"/>
<path d="M515 1320 c3 -5 8 -10 11 -10 2 0 4 5 4 10 0 6 -5 10 -11 10 -5 0 -7
-4 -4 -10z"/>
<path d="M62 1282 c-23 -2 -40 -7 -37 -13 4 -5 77 -9 167 -9 176 0 207 10 51
16 -54 2 -107 5 -118 7 -11 2 -39 1 -63 -1z"/>
<path d="M418 1253 c12 -2 32 -2 45 0 12 2 2 4 -23 4 -25 0 -35 -2 -22 -4z"/>
<path d="M528 1253 c7 -3 16 -2 19 1 4 3 -2 6 -13 5 -11 0 -14 -3 -6 -6z"/>
<path d="M120 1222 l-25 -14 28 7 c17 3 35 1 43 -6 11 -9 14 -8 14 4 0 21 -30
26 -60 9z"/>
<path d="M2581 954 c0 -11 3 -14 6 -6 3 7 2 16 -1 19 -3 4 -6 -2 -5 -13z"/>
<path d="M2564 908 c-4 -6 -3 -8 4 -4 5 3 13 0 15 -6 3 -8 6 -6 6 5 1 19 -14
23 -25 5z"/>
<path d="M2576 805 c-3 -8 -1 -15 4 -15 6 0 10 7 10 15 0 8 -2 15 -4 15 -2 0
-6 -7 -10 -15z"/>
<path d="M2387 533 c20 -15 189 -103 197 -103 3 0 6 24 6 54 l0 55 -110 3
c-90 2 -107 1 -93 -9z"/>
<path d="M833 408 c-11 -13 -24 -30 -28 -38 -8 -16 -6 -14 34 33 14 15 22 27
19 27 -2 0 -14 -10 -25 -22z"/>
<path d="M1256 384 c-5 -13 -4 -14 7 -6 8 7 18 8 22 4 5 -4 5 -1 1 6 -10 17
-23 15 -30 -4z"/>
<path d="M1187 369 c7 -7 15 -10 18 -7 3 3 -2 9 -12 12 -14 6 -15 5 -6 -5z"/>
<path d="M2251 306 c2 -2 54 -25 114 -51 124 -54 147 -69 95 -61 -35 5 -497
12 -1445 21 -286 2 -524 5 -530 5 -5 1 -107 -1 -225 -5 -118 -3 -225 -5 -237
-5 -22 0 -23 -3 -23 -105 l0 -105 1295 0 1295 0 0 148 0 149 -97 6 c-107 7
-249 9 -242 3z"/>
</g>
</svg>
